<?xml version="1.0" encoding="UTF-8"?>
<svg xmlns="http://www.w3.org/2000/svg" xmlns:xlink="http://www.w3.org/1999/xlink" width="18pt" height="18pt" viewBox="0 0 18 18" version="1.1">
<defs>
<filter id="alpha" filterUnits="objectBoundingBox" x="0%" y="0%" width="100%" height="100%">
  <feColorMatrix type="matrix" in="SourceGraphic" values="0 0 0 0 1 0 0 0 0 1 0 0 0 0 1 0 0 0 1 0"/>
</filter>
<mask id="mask0">
  <g filter="url(#alpha)">
<rect x="0" y="0" width="18" height="18" style="fill:rgb(0%,0%,0%);fill-opacity:0.35;stroke:none;"/>
  </g>
</mask>
<clipPath id="clip1">
  <rect x="0" y="0" width="18" height="18"/>
</clipPath>
<g id="surface23092" clip-path="url(#clip1)">
<path style=" stroke:none;fill-rule:nonzero;fill:rgb(0%,0%,0%);fill-opacity:1;" d="M 16.875 8.625 C 16.875 9.660156 16.035156 10.5 15 10.5 C 13.964844 10.5 13.125 9.660156 13.125 8.625 C 13.125 7.589844 13.964844 6.75 15 6.75 C 16.035156 6.75 16.875 7.589844 16.875 8.625 Z M 16.875 8.625 "/>
</g>
<mask id="mask1">
  <g filter="url(#alpha)">
<rect x="0" y="0" width="18" height="18" style="fill:rgb(0%,0%,0%);fill-opacity:0.35;stroke:none;"/>
  </g>
</mask>
<clipPath id="clip2">
  <rect x="0" y="0" width="18" height="18"/>
</clipPath>
<g id="surface23096" clip-path="url(#clip2)">
<path style=" stroke:none;fill-rule:nonzero;fill:rgb(0%,0%,0%);fill-opacity:1;" d="M 15 12.75 L 16.394531 11.355469 C 16.191406 11.292969 15.976562 11.25 15.75 11.25 L 14.25 11.25 C 14.023438 11.25 13.808594 11.292969 13.605469 11.355469 Z M 15 12.75 "/>
</g>
<mask id="mask2">
  <g filter="url(#alpha)">
<rect x="0" y="0" width="18" height="18" style="fill:rgb(0%,0%,0%);fill-opacity:0.35;stroke:none;"/>
  </g>
</mask>
<clipPath id="clip3">
  <rect x="0" y="0" width="18" height="18"/>
</clipPath>
<g id="surface23100" clip-path="url(#clip3)">
<path style=" stroke:none;fill-rule:nonzero;fill:rgb(0%,0%,0%);fill-opacity:1;" d="M 14.351562 15.339844 L 15 12.75 L 15.648438 15.339844 C 15.710938 15.59375 15.636719 15.863281 15.449219 16.050781 L 15 16.5 L 14.550781 16.050781 C 14.363281 15.863281 14.289062 15.59375 14.351562 15.339844 Z M 14.351562 15.339844 "/>
</g>
<mask id="mask3">
  <g filter="url(#alpha)">
<rect x="0" y="0" width="18" height="18" style="fill:rgb(0%,0%,0%);fill-opacity:0.35;stroke:none;"/>
  </g>
</mask>
<clipPath id="clip4">
  <rect x="0" y="0" width="18" height="18"/>
</clipPath>
<g id="surface23104" clip-path="url(#clip4)">
<path style=" stroke:none;fill-rule:nonzero;fill:rgb(0%,0%,0%);fill-opacity:1;" d="M 6.695312 3.0625 C 6.988281 3.355469 6.753906 4.070312 6.164062 4.65625 C 5.578125 5.242188 4.867188 5.480469 4.574219 5.1875 C 4.28125 4.894531 4.519531 4.179688 5.105469 3.59375 C 5.691406 3.007812 6.402344 2.769531 6.695312 3.0625 Z M 6.695312 3.0625 "/>
</g>
<mask id="mask4">
  <g filter="url(#alpha)">
<rect x="0" y="0" width="18" height="18" style="fill:rgb(0%,0%,0%);fill-opacity:0.35;stroke:none;"/>
  </g>
</mask>
<clipPath id="clip5">
  <rect x="0" y="0" width="18" height="18"/>
</clipPath>
<g id="surface23108" clip-path="url(#clip5)">
<path style=" stroke:none;fill-rule:nonzero;fill:rgb(0%,0%,0%);fill-opacity:1;" d="M 10.882812 2.625 C 10.882812 3.660156 10.046875 4.5 9.007812 4.5 C 7.972656 4.5 7.132812 3.660156 7.132812 2.625 C 7.132812 1.589844 7.972656 0.75 9.007812 0.75 C 10.046875 0.75 10.882812 1.589844 10.882812 2.625 Z M 10.882812 2.625 "/>
</g>
<mask id="mask5">
  <g filter="url(#alpha)">
<rect x="0" y="0" width="18" height="18" style="fill:rgb(0%,0%,0%);fill-opacity:0.35;stroke:none;"/>
  </g>
</mask>
<clipPath id="clip6">
  <rect x="0" y="0" width="18" height="18"/>
</clipPath>
<g id="surface23112" clip-path="url(#clip6)">
<path style=" stroke:none;fill-rule:nonzero;fill:rgb(0%,0%,0%);fill-opacity:1;" d="M 9.007812 6.75 L 10.300781 5.460938 C 10.015625 5.328125 9.699219 5.25 9.367188 5.25 L 8.652344 5.25 C 8.320312 5.25 8.007812 5.328125 7.71875 5.460938 Z M 9.007812 6.75 "/>
</g>
<mask id="mask6">
  <g filter="url(#alpha)">
<rect x="0" y="0" width="18" height="18" style="fill:rgb(0%,0%,0%);fill-opacity:0.35;stroke:none;"/>
  </g>
</mask>
<clipPath id="clip7">
  <rect x="0" y="0" width="18" height="18"/>
</clipPath>
<g id="surface23116" clip-path="url(#clip7)">
<path style=" stroke:none;fill-rule:nonzero;fill:rgb(0%,0%,0%);fill-opacity:1;" d="M 8.363281 9.339844 L 9.007812 6.75 L 9.65625 9.339844 C 9.722656 9.59375 9.644531 9.863281 9.460938 10.050781 L 9.007812 10.5 L 8.558594 10.050781 C 8.375 9.863281 8.296875 9.59375 8.363281 9.339844 Z M 8.363281 9.339844 "/>
</g>
<mask id="mask7">
  <g filter="url(#alpha)">
<rect x="0" y="0" width="18" height="18" style="fill:rgb(0%,0%,0%);fill-opacity:0.35;stroke:none;"/>
  </g>
</mask>
<clipPath id="clip8">
  <rect x="0" y="0" width="18" height="18"/>
</clipPath>
<g id="surface23122" clip-path="url(#clip8)">
<path style=" stroke:none;fill-rule:nonzero;fill:rgb(0%,0%,0%);fill-opacity:1;" d="M 4.875 8.625 C 4.875 9.660156 4.035156 10.5 3 10.5 C 1.964844 10.5 1.125 9.660156 1.125 8.625 C 1.125 7.589844 1.964844 6.75 3 6.75 C 4.035156 6.75 4.875 7.589844 4.875 8.625 Z M 4.875 8.625 "/>
</g>
<mask id="mask8">
  <g filter="url(#alpha)">
<rect x="0" y="0" width="18" height="18" style="fill:rgb(0%,0%,0%);fill-opacity:0.35;stroke:none;"/>
  </g>
</mask>
<clipPath id="clip9">
  <rect x="0" y="0" width="18" height="18"/>
</clipPath>
<g id="surface23126" clip-path="url(#clip9)">
<path style=" stroke:none;fill-rule:nonzero;fill:rgb(0%,0%,0%);fill-opacity:1;" d="M 3 12.75 L 4.394531 11.355469 C 4.191406 11.292969 3.976562 11.25 3.75 11.25 L 2.25 11.25 C 2.023438 11.25 1.808594 11.292969 1.605469 11.355469 Z M 3 12.75 "/>
</g>
<mask id="mask9">
  <g filter="url(#alpha)">
<rect x="0" y="0" width="18" height="18" style="fill:rgb(0%,0%,0%);fill-opacity:0.35;stroke:none;"/>
  </g>
</mask>
<clipPath id="clip10">
  <rect x="0" y="0" width="18" height="18"/>
</clipPath>
<g id="surface23130" clip-path="url(#clip10)">
<path style=" stroke:none;fill-rule:nonzero;fill:rgb(0%,0%,0%);fill-opacity:1;" d="M 2.351562 15.339844 L 3 12.75 L 3.648438 15.339844 C 3.710938 15.59375 3.636719 15.863281 3.449219 16.050781 L 3 16.5 L 2.550781 16.050781 C 2.363281 15.863281 2.289062 15.59375 2.351562 15.339844 Z M 2.351562 15.339844 "/>
</g>
</defs>
<g id="surface23087">
<use xlink:href="#surface23092" mask="url(#mask0)"/>
<use xlink:href="#surface23096" mask="url(#mask1)"/>
<use xlink:href="#surface23100" mask="url(#mask2)"/>
<use xlink:href="#surface23104" mask="url(#mask3)"/>
<use xlink:href="#surface23108" mask="url(#mask4)"/>
<use xlink:href="#surface23112" mask="url(#mask5)"/>
<use xlink:href="#surface23116" mask="url(#mask6)"/>
<path style=" stroke:none;fill-rule:nonzero;fill:rgb(0%,0%,0%);fill-opacity:1;" d="M 11.585938 7.113281 C 11.453125 6.363281 10.957031 5.761719 10.300781 5.460938 L 9.007812 6.75 L 9.65625 9.339844 C 9.722656 9.59375 9.644531 9.863281 9.460938 10.050781 L 9.007812 10.5 L 8.558594 10.050781 C 8.375 9.863281 8.296875 9.59375 8.363281 9.339844 L 9.007812 6.75 L 7.71875 5.460938 C 7.0625 5.761719 6.566406 6.363281 6.433594 7.113281 L 5.863281 10.371094 C 5.785156 10.828125 6.136719 11.25 6.601562 11.25 L 11.417969 11.25 C 11.882812 11.25 12.234375 10.828125 12.15625 10.371094 Z M 11.585938 7.113281 "/>
<path style=" stroke:none;fill-rule:nonzero;fill:rgb(0%,0%,0%);fill-opacity:1;" d="M 16.5 17.25 C 17.328125 17.25 18 16.578125 18 15.75 L 18 13.5 C 18 12.484375 17.320312 11.632812 16.394531 11.355469 L 15 12.75 L 15.648438 15.339844 C 15.710938 15.59375 15.636719 15.863281 15.449219 16.050781 L 15 16.5 L 14.550781 16.050781 C 14.363281 15.863281 14.289062 15.59375 14.351562 15.335938 L 15 12.75 L 13.605469 11.355469 C 12.679688 11.632812 12 12.484375 12 13.5 L 12 15.75 C 12 16.578125 12.671875 17.25 13.5 17.25 Z M 16.5 17.25 "/>
<use xlink:href="#surface23122" mask="url(#mask7)"/>
<use xlink:href="#surface23126" mask="url(#mask8)"/>
<use xlink:href="#surface23130" mask="url(#mask9)"/>
<path style=" stroke:none;fill-rule:nonzero;fill:rgb(0%,0%,0%);fill-opacity:1;" d="M 4.5 17.25 C 5.328125 17.25 6 16.578125 6 15.75 L 6 13.5 C 6 12.484375 5.320312 11.632812 4.394531 11.355469 L 3 12.75 L 3.648438 15.339844 C 3.710938 15.59375 3.636719 15.863281 3.449219 16.050781 L 3 16.5 L 2.550781 16.050781 C 2.363281 15.863281 2.289062 15.59375 2.351562 15.335938 L 3 12.75 L 1.605469 11.355469 C 0.679688 11.632812 0 12.484375 0 13.5 L 0 15.75 C 0 16.578125 0.671875 17.25 1.5 17.25 Z M 4.5 17.25 "/>
</g>
</svg>
