<?xml version="1.0" encoding="UTF-8"?>
<svg xmlns="http://www.w3.org/2000/svg" xmlns:xlink="http://www.w3.org/1999/xlink" width="18pt" height="18pt" viewBox="0 0 18 18" version="1.1">
<defs>
<filter id="alpha" filterUnits="objectBoundingBox" x="0%" y="0%" width="100%" height="100%">
  <feColorMatrix type="matrix" in="SourceGraphic" values="0 0 0 0 1 0 0 0 0 1 0 0 0 0 1 0 0 0 1 0"/>
</filter>
<mask id="mask0">
  <g filter="url(#alpha)">
<rect x="0" y="0" width="18" height="18" style="fill:rgb(0%,0%,0%);fill-opacity:0.35;stroke:none;"/>
  </g>
</mask>
<clipPath id="clip1">
  <rect x="0" y="0" width="18" height="18"/>
</clipPath>
<g id="surface2443" clip-path="url(#clip1)">
<path style=" stroke:none;fill-rule:nonzero;fill:rgb(0%,0%,0%);fill-opacity:1;" d="M 8.824219 12.257812 C 8.203125 12.257812 7.589844 12.082031 7.050781 11.746094 C 6.265625 11.257812 5.726562 10.496094 5.535156 9.597656 L 4.507812 4.871094 C 4.476562 4.730469 4.378906 4.65625 4.324219 4.625 C 4.269531 4.59375 4.15625 4.550781 4.023438 4.59375 L 2.230469 5.191406 C 1.644531 5.390625 1.003906 5.070312 0.808594 4.480469 C 0.609375 3.890625 0.929688 3.253906 1.519531 3.058594 L 3.308594 2.460938 C 4.015625 2.226562 4.789062 2.300781 5.4375 2.671875 C 6.085938 3.039062 6.546875 3.667969 6.703125 4.394531 L 7.730469 9.121094 C 7.796875 9.417969 7.976562 9.671875 8.238281 9.835938 C 8.496094 9.996094 8.804688 10.042969 9.101562 9.972656 L 15.851562 8.285156 C 16.457031 8.132812 17.066406 8.5 17.214844 9.101562 C 17.367188 9.707031 17 10.316406 16.398438 10.46875 L 9.648438 12.15625 C 9.375 12.222656 9.097656 12.257812 8.824219 12.257812 Z M 8.824219 12.257812 "/>
</g>
</defs>
<g id="surface2436">
<path style=" stroke:none;fill-rule:nonzero;fill:rgb(0%,0%,0%);fill-opacity:1;" d="M 12 13.125 C 12 14.160156 11.160156 15 10.125 15 C 9.089844 15 8.25 14.160156 8.25 13.125 C 8.25 12.089844 9.089844 11.25 10.125 11.25 C 11.160156 11.25 12 12.089844 12 13.125 Z M 12 13.125 "/>
<path style=" stroke:none;fill-rule:nonzero;fill:rgb(0%,0%,0%);fill-opacity:1;" d="M 15.75 16.5 L 2.25 16.5 C 1.835938 16.5 1.5 16.164062 1.5 15.75 C 1.5 15.335938 1.835938 15 2.25 15 L 15.75 15 C 16.164062 15 16.5 15.335938 16.5 15.75 C 16.5 16.164062 16.164062 16.5 15.75 16.5 Z M 15.75 16.5 "/>
<use xlink:href="#surface2443" mask="url(#mask0)"/>
<path style=" stroke:none;fill-rule:nonzero;fill:rgb(0%,0%,0%);fill-opacity:1;" d="M 13.507812 9.171875 L 9.117188 10.148438 C 8.308594 10.328125 7.507812 9.816406 7.328125 9.007812 L 6.351562 4.617188 C 6.171875 3.808594 6.683594 3.007812 7.492188 2.828125 L 11.882812 1.851562 C 12.691406 1.671875 13.492188 2.183594 13.671875 2.992188 L 14.648438 7.382812 C 14.828125 8.191406 14.316406 8.992188 13.507812 9.171875 Z M 13.507812 9.171875 "/>
</g>
</svg>
