<?xml version="1.0" encoding="UTF-8"?>
<svg xmlns="http://www.w3.org/2000/svg" xmlns:xlink="http://www.w3.org/1999/xlink" width="18pt" height="18pt" viewBox="0 0 18 18" version="1.1">
<defs>
<filter id="alpha" filterUnits="objectBoundingBox" x="0%" y="0%" width="100%" height="100%">
  <feColorMatrix type="matrix" in="SourceGraphic" values="0 0 0 0 1 0 0 0 0 1 0 0 0 0 1 0 0 0 1 0"/>
</filter>
<mask id="mask0">
  <g filter="url(#alpha)">
<rect x="0" y="0" width="18" height="18" style="fill:rgb(0%,0%,0%);fill-opacity:0.35;stroke:none;"/>
  </g>
</mask>
<clipPath id="clip1">
  <rect x="0" y="0" width="18" height="18"/>
</clipPath>
<g id="surface37280" clip-path="url(#clip1)">
<path style=" stroke:none;fill-rule:nonzero;fill:rgb(0%,0%,0%);fill-opacity:1;" d="M 15 11.25 L 15 4.5 C 15 3.257812 13.992188 2.25 12.75 2.25 L 5.25 2.25 C 4.007812 2.25 3 3.257812 3 4.5 L 3 15.75 L 13.585938 15.75 C 13.535156 15.902344 13.5 16.058594 13.5 16.222656 L 13.5 17.25 L 17.25 17.25 L 17.25 16.222656 C 17.25 15.90625 17.140625 15.605469 16.957031 15.355469 L 16.957031 15.058594 L 16.671875 15.058594 C 16.621094 15.015625 16.578125 14.972656 16.523438 14.9375 L 15.375 14.25 L 15.617188 14.105469 L 16.957031 14.105469 L 16.957031 13.144531 C 17.140625 12.894531 17.25 12.59375 17.25 12.277344 L 17.25 12 C 17.25 11.585938 17.25 11.25 17.25 11.25 Z M 15 11.25 "/>
</g>
</defs>
<g id="surface37270">
<path style=" stroke:none;fill-rule:nonzero;fill:rgb(0%,0%,0%);fill-opacity:1;" d="M 0.75 12.75 L 0.75 13.5 C 0.75 14.742188 1.757812 15.75 3 15.75 L 12.75 15.75 C 11.507812 15.75 10.5 14.742188 10.5 13.5 L 10.5 12.75 C 10.5 11.921875 9.828125 11.25 9 11.25 L 2.25 11.25 C 1.421875 11.25 0.75 11.921875 0.75 12.75 Z M 0.75 12.75 "/>
<path style=" stroke:none;fill-rule:nonzero;fill:rgb(0%,0%,0%);fill-opacity:1;" d="M 9 5.25 C 8.859375 5.25 6.140625 5.25 6 5.25 C 5.585938 5.25 5.25 5.585938 5.25 6 C 5.25 6.414062 5.585938 6.75 6 6.75 C 6.140625 6.75 8.859375 6.75 9 6.75 C 9.414062 6.75 9.75 6.414062 9.75 6 C 9.75 5.585938 9.414062 5.25 9 5.25 Z M 9 5.25 "/>
<path style=" stroke:none;fill-rule:nonzero;fill:rgb(0%,0%,0%);fill-opacity:1;" d="M 9 8.25 C 8.859375 8.25 6.140625 8.25 6 8.25 C 5.585938 8.25 5.25 8.585938 5.25 9 C 5.25 9.414062 5.585938 9.75 6 9.75 C 6.140625 9.75 8.859375 9.75 9 9.75 C 9.414062 9.75 9.75 9.414062 9.75 9 C 9.75 8.585938 9.414062 8.25 9 8.25 Z M 9 8.25 "/>
<path style=" stroke:none;fill-rule:nonzero;fill:rgb(0%,0%,0%);fill-opacity:1;" d="M 12.75 6 C 12.75 6.414062 12.414062 6.75 12 6.75 C 11.585938 6.75 11.25 6.414062 11.25 6 C 11.25 5.585938 11.585938 5.25 12 5.25 C 12.414062 5.25 12.75 5.585938 12.75 6 Z M 12.75 6 "/>
<path style=" stroke:none;fill-rule:nonzero;fill:rgb(0%,0%,0%);fill-opacity:1;" d="M 12.75 9 C 12.75 9.414062 12.414062 9.75 12 9.75 C 11.585938 9.75 11.25 9.414062 11.25 9 C 11.25 8.585938 11.585938 8.25 12 8.25 C 12.414062 8.25 12.75 8.585938 12.75 9 Z M 12.75 9 "/>
<use xlink:href="#surface37280" mask="url(#mask0)"/>
<path style=" stroke:none;fill-rule:nonzero;fill:rgb(0%,0%,0%);fill-opacity:1;" d="M 17.25 18 L 13.5 18 C 13.085938 18 12.75 17.664062 12.75 17.25 L 12.75 16.226562 C 12.75 15.441406 13.167969 14.699219 13.84375 14.296875 L 13.917969 14.25 L 13.84375 14.203125 C 13.167969 13.800781 12.75 13.058594 12.75 12.273438 L 12.75 11.25 C 12.75 10.835938 13.085938 10.5 13.5 10.5 L 17.25 10.5 C 17.664062 10.5 18 10.835938 18 11.25 L 18 12.273438 C 18 13.058594 17.582031 13.800781 16.90625 14.203125 L 16.832031 14.25 L 16.90625 14.296875 C 17.582031 14.699219 18 15.441406 18 16.226562 L 18 17.25 C 18 17.664062 17.664062 18 17.25 18 Z M 14.25 16.5 L 16.5 16.5 L 16.5 16.226562 C 16.5 15.960938 16.359375 15.714844 16.136719 15.582031 L 15.375 15.125 L 14.613281 15.582031 C 14.390625 15.714844 14.25 15.960938 14.25 16.226562 Z M 14.25 12 L 14.25 12.273438 C 14.25 12.539062 14.390625 12.785156 14.613281 12.917969 L 15.375 13.375 L 16.136719 12.917969 C 16.359375 12.785156 16.5 12.539062 16.5 12.273438 L 16.5 12 Z M 14.25 12 "/>
</g>
</svg>
