<?xml version="1.0" encoding="UTF-8"?>
<svg xmlns="http://www.w3.org/2000/svg" xmlns:xlink="http://www.w3.org/1999/xlink" width="18pt" height="18pt" viewBox="0 0 18 18" version="1.1">
<defs>
<filter id="alpha" filterUnits="objectBoundingBox" x="0%" y="0%" width="100%" height="100%">
  <feColorMatrix type="matrix" in="SourceGraphic" values="0 0 0 0 1 0 0 0 0 1 0 0 0 0 1 0 0 0 1 0"/>
</filter>
<mask id="mask0">
  <g filter="url(#alpha)">
<rect x="0" y="0" width="18" height="18" style="fill:rgb(0%,0%,0%);fill-opacity:0.35;stroke:none;"/>
  </g>
</mask>
<clipPath id="clip1">
  <rect x="0" y="0" width="18" height="18"/>
</clipPath>
<g id="surface26569" clip-path="url(#clip1)">
<path style=" stroke:none;fill-rule:nonzero;fill:rgb(0%,0%,0%);fill-opacity:1;" d="M 15.109375 2.140625 L 14.6875 2.5625 C 14.445312 2.804688 14.054688 2.804688 13.808594 2.5625 C 13.226562 1.976562 12.273438 1.976562 11.691406 2.5625 C 11.445312 2.804688 11.054688 2.804688 10.8125 2.5625 C 10.226562 1.976562 9.277344 1.976562 8.691406 2.5625 C 8.449219 2.804688 8.054688 2.804688 7.8125 2.5625 C 7.226562 1.976562 6.277344 1.976562 5.691406 2.5625 C 5.449219 2.804688 5.054688 2.804688 4.8125 2.5625 L 4.390625 2.140625 C 4.152344 1.902344 3.75 2.070312 3.75 2.40625 L 3.75 7.285156 C 3.296875 7.765625 3 8.519531 3 9.375 C 3 10.230469 3.296875 10.984375 3.75 11.464844 L 3.75 15.59375 C 3.75 15.929688 4.152344 16.097656 4.390625 15.859375 L 4.8125 15.441406 C 5.054688 15.195312 5.445312 15.195312 5.691406 15.441406 C 6.273438 16.023438 7.226562 16.023438 7.808594 15.441406 C 8.054688 15.195312 8.445312 15.195312 8.6875 15.441406 C 9.273438 16.023438 10.222656 16.023438 10.808594 15.441406 C 11.050781 15.195312 11.445312 15.195312 11.6875 15.441406 C 12.273438 16.023438 13.222656 16.023438 13.808594 15.441406 C 14.050781 15.195312 14.445312 15.195312 14.6875 15.441406 L 15.109375 15.859375 C 15.347656 16.097656 15.75 15.929688 15.75 15.59375 L 15.75 2.40625 C 15.75 2.070312 15.347656 1.902344 15.109375 2.140625 Z M 15.109375 2.140625 "/>
</g>
</defs>
<g id="surface26563">
<path style=" stroke:none;fill-rule:nonzero;fill:rgb(0%,0%,0%);fill-opacity:1;" d="M 4.875 6 C 3.011719 6 1.5 7.511719 1.5 9.375 C 1.5 11.238281 3.011719 12.75 4.875 12.75 C 6.738281 12.75 8.25 11.238281 8.25 9.375 C 8.25 7.511719 6.738281 6 4.875 6 Z M 5.121094 11.4375 L 5.121094 11.699219 C 5.121094 11.867188 4.984375 12 4.8125 12 C 4.644531 12 4.503906 11.867188 4.503906 11.699219 L 4.503906 11.488281 C 4.246094 11.464844 4.035156 11.390625 3.859375 11.292969 C 3.652344 11.179688 3.597656 10.910156 3.734375 10.71875 L 3.746094 10.703125 C 3.863281 10.539062 4.089844 10.46875 4.273438 10.5625 C 4.378906 10.617188 4.511719 10.660156 4.664062 10.660156 C 5.011719 10.660156 5.074219 10.375 5.074219 10.246094 C 5.074219 9.570312 3.683594 9.804688 3.683594 8.507812 C 3.683594 7.917969 4.019531 7.460938 4.535156 7.292969 L 4.535156 7.050781 C 4.535156 6.882812 4.671875 6.75 4.84375 6.75 C 5.015625 6.75 5.152344 6.882812 5.152344 7.050781 L 5.152344 7.230469 C 5.347656 7.246094 5.511719 7.292969 5.640625 7.351562 C 5.878906 7.453125 5.953125 7.742188 5.804688 7.949219 C 5.6875 8.109375 5.46875 8.1875 5.285156 8.105469 C 5.203125 8.070312 5.113281 8.046875 5.007812 8.046875 C 4.902344 8.046875 4.59375 8.085938 4.59375 8.464844 C 4.59375 9.113281 6 8.941406 6 10.179688 C 6 10.761719 5.691406 11.265625 5.121094 11.4375 Z M 5.121094 11.4375 "/>
<use xlink:href="#surface26569" mask="url(#mask0)"/>
<path style=" stroke:none;fill-rule:nonzero;fill:rgb(0%,0%,0%);fill-opacity:1;" d="M 13.5 6.75 L 10.5 6.75 C 10.085938 6.75 9.75 6.414062 9.75 6 C 9.75 5.585938 10.085938 5.25 10.5 5.25 L 13.5 5.25 C 13.914062 5.25 14.25 5.585938 14.25 6 C 14.25 6.414062 13.914062 6.75 13.5 6.75 Z M 13.5 6.75 "/>
<path style=" stroke:none;fill-rule:nonzero;fill:rgb(0%,0%,0%);fill-opacity:1;" d="M 13.5 9.75 L 10.5 9.75 C 10.085938 9.75 9.75 9.414062 9.75 9 C 9.75 8.585938 10.085938 8.25 10.5 8.25 L 13.5 8.25 C 13.914062 8.25 14.25 8.585938 14.25 9 C 14.25 9.414062 13.914062 9.75 13.5 9.75 Z M 13.5 9.75 "/>
<path style=" stroke:none;fill-rule:nonzero;fill:rgb(0%,0%,0%);fill-opacity:1;" d="M 13.5 12.75 L 10.5 12.75 C 10.085938 12.75 9.75 12.414062 9.75 12 C 9.75 11.585938 10.085938 11.25 10.5 11.25 L 13.5 11.25 C 13.914062 11.25 14.25 11.585938 14.25 12 C 14.25 12.414062 13.914062 12.75 13.5 12.75 Z M 13.5 12.75 "/>
</g>
</svg>
