<?xml version="1.0" encoding="UTF-8"?>
<svg xmlns="http://www.w3.org/2000/svg" xmlns:xlink="http://www.w3.org/1999/xlink" width="18pt" height="18pt" viewBox="0 0 18 18" version="1.1">
<defs>
<filter id="alpha" filterUnits="objectBoundingBox" x="0%" y="0%" width="100%" height="100%">
  <feColorMatrix type="matrix" in="SourceGraphic" values="0 0 0 0 1 0 0 0 0 1 0 0 0 0 1 0 0 0 1 0"/>
</filter>
<mask id="mask0">
  <g filter="url(#alpha)">
<rect x="0" y="0" width="18" height="18" style="fill:rgb(0%,0%,0%);fill-opacity:0.35;stroke:none;"/>
  </g>
</mask>
<clipPath id="clip1">
  <rect x="0" y="0" width="18" height="18"/>
</clipPath>
<g id="surface36423" clip-path="url(#clip1)">
<path style=" stroke:none;fill-rule:nonzero;fill:rgb(0%,0%,0%);fill-opacity:1;" d="M 16.472656 13.160156 L 15.367188 5.910156 C 15.367188 5.910156 12 5.25 9 5.25 C 6 5.25 2.632812 5.910156 2.632812 5.910156 L 1.527344 13.160156 C 1.320312 14.523438 2.371094 15.75 3.75 15.75 L 14.25 15.75 C 15.628906 15.75 16.679688 14.523438 16.472656 13.160156 Z M 16.472656 13.160156 "/>
</g>
</defs>
<g id="surface36418">
<use xlink:href="#surface36423" mask="url(#mask0)"/>
<path style=" stroke:none;fill-rule:nonzero;fill:rgb(0%,0%,0%);fill-opacity:1;" d="M 15.375 6.75 C 15.28125 6.75 15.183594 6.738281 15.085938 6.710938 C 15.058594 6.703125 12.347656 6 9 6 C 5.652344 6 2.941406 6.703125 2.914062 6.710938 C 2.316406 6.871094 1.695312 6.515625 1.539062 5.914062 C 1.378906 5.3125 1.734375 4.695312 2.335938 4.539062 C 2.457031 4.507812 5.34375 3.75 9 3.75 C 12.65625 3.75 15.542969 4.507812 15.664062 4.539062 C 16.265625 4.695312 16.621094 5.3125 16.460938 5.914062 C 16.328125 6.417969 15.871094 6.75 15.375 6.75 Z M 15.375 6.75 "/>
<path style=" stroke:none;fill-rule:nonzero;fill:rgb(0%,0%,0%);fill-opacity:1;" d="M 10.875 1.5 C 10.253906 1.5 9.75 2.003906 9.75 2.625 C 9.75 3.246094 10.253906 3.75 10.875 3.75 C 11.496094 3.75 12 3.246094 12 2.625 C 12 2.003906 11.496094 1.5 10.875 1.5 Z M 7.125 1.5 C 6.503906 1.5 6 2.003906 6 2.625 C 6 3.246094 6.503906 3.75 7.125 3.75 C 7.746094 3.75 8.25 3.246094 8.25 2.625 C 8.25 2.003906 7.746094 1.5 7.125 1.5 Z M 7.125 1.5 "/>
</g>
</svg>
